# xmcd
#
# Track frame offsets: 
#        150
#        13205
#        31184
#        50209
#        66251
#        85120
#        102511
#        115783
#        131573
#        148534
#        164721
#        182871
#        198967
#        220827
#
# Disc length: 3244 seconds
#
# Revision: 0
# Processed by: cddbd v1.5.2PL0 Copyright (c) Steve Scherf et al.
# Submitted via: ExactAudioCopyFreeDBPlugin 1.0
#
DISCID=d00caa0e
DTITLE=Keyshia Cole - Point of No Return (Deluxe Edition)
DYEAR=2014
DGENRE=R&B
TTITLE0=Intro (Last Tango)
TTITLE1=Heat of Passion
TTITLE2=N.L.U (feat. 2 Chainz)
TTITLE3=Next Time (Won't Give My Heart Away)
TTITLE4=Rick James (feat. Juicy J)
TTITLE5=Do That For (B.A.B.)
TTITLE6=New NU
TTITLE7=No Complications
TTITLE8=She
TTITLE9=Believer
TTITLE10=On Demand (feat. Wale and August Alsina)
TTITLE11=Love Letter (feat. Future)
TTITLE12=Party Ain't a Party (feat. Gavyn Rhone)
TTITLE13=Remember (Part 2)
EXTD=
EXTT0=
EXTT1=
EXTT2=
EXTT3=
EXTT4=
EXTT5=
EXTT6=
EXTT7=
EXTT8=
EXTT9=
EXTT10=
EXTT11=
EXTT12=
EXTT13=
PLAYORDER=
